<svg width="80" height="80" fill="none" xmlns="http://www.w3.org/2000/svg"><path opacity=".3" d="M22.889 62h6.222c.491 0 .889.448.889 1v9c0 .552-.398 1-.889 1H22.89c-.491 0-.889-.448-.889-1v-9c0-.552.398-1 .889-1zm15-7h6.222c.491 0 .889.692.889 1.545v13.91c0 .853-.398 1.545-.889 1.545H37.89c-.491 0-.889-.692-.889-1.546V56.546c0-.854.398-1.546.889-1.546zm14-9h6.222c.491 0 .889 1.058.889 2.364v21.272c0 1.306-.398 2.364-.889 2.364H51.89c-.491 0-.889-1.058-.889-2.364V48.364c0-1.306.398-2.364.889-2.364zm15-19h6.222c.491 0 .889 1.832.889 4.09v36.82c0 2.258-.398 4.09-.889 4.09H66.89c-.491 0-.889-1.832-.889-4.09V31.09c0-2.258.398-4.09.889-4.09zm-59 39h6.222c.491 0 .889.285.889.636v5.728c0 .351-.398.636-.889.636H7.89c-.492 0-.89-.285-.89-.636v-5.728c0-.351.398-.636.889-.636z" fill="#76CEFF"/><path d="M80 77.333H0V80h80v-2.667zm-2.807-65.928L71.86.738a1.333 1.333 0 0 0-1.79-.597L59.405 5.474a1.334 1.334 0 0 0 1.192 2.387l7.725-3.86-2.108 6.019c-9.265 26.387-33.13 44.9-60.993 47.314L5.447 60c28.912-2.504 53.675-21.717 63.285-49.1l2.152-6.15 3.923 7.847a1.334 1.334 0 0 0 2.386-1.192zM16 64H6.667c-.736 0-1.333.597-1.333 1.334v8c0 .736.597 1.333 1.333 1.333H16c.737 0 1.334-.597 1.334-1.333v-8c0-.737-.597-1.334-1.334-1.334zm-1.333 8H8v-5.333h6.667V72zm16-12h-9.334c-.736 0-1.333.597-1.333 1.334v12c0 .736.597 1.333 1.333 1.333h9.334c.736 0 1.333-.597 1.333-1.334v-12c0-.736-.597-1.333-1.333-1.333zm-1.334 12h-6.666v-9.333h6.666V72zm16-18.666H36c-.736 0-1.333.596-1.333 1.333v18.666c0 .737.597 1.334 1.333 1.334h9.333c.737 0 1.334-.597 1.334-1.334V54.667c0-.736-.597-1.334-1.334-1.334zM44 72h-6.667V56H44v16z" fill="#76CEFF"/><path d="M60 44h-9.333c-.737 0-1.334.597-1.334 1.334v28c0 .736.597 1.333 1.334 1.333H60c.736 0 1.333-.597 1.333-1.334v-28c0-.736-.597-1.332-1.333-1.332zm-1.333 28H52V46.667h6.667V72zm16-46.666h-9.334c-.736 0-1.333.597-1.333 1.334v46.666c0 .736.597 1.333 1.333 1.333h9.334c.736 0 1.333-.597 1.333-1.333V26.668c0-.737-.597-1.334-1.333-1.334zM73.333 72h-6.666V28h6.666v44zM24 8.001H6.666v2.667H24V8zm0 5.333H6.666v2.667H24v-2.667zm-5.334 5.334h-12v2.666h12v-2.666zm0 5.332h-12v2.667h12v-2.666z" fill="#76CEFF"/></svg>