<svg width="80" height="80" fill="none" xmlns="http://www.w3.org/2000/svg"><path d="M34.5 33l4.5-1.5 5.5 2 1 7-1 6-5.5 2-4.5-2L32 40l2.5-7z" fill="#D6F0FF"/><path d="M75.224 40l4.633-11.064c.358-.854.025-1.83-.79-2.32L68.496 20.26 65.424 8.713c-.238-.89-1.109-1.493-2.07-1.433l-12.47.781L41.28.441a2.075 2.075 0 0 0-2.559 0l-9.605 7.62-12.468-.781c-.963-.06-1.833.542-2.07 1.434L11.503 20.26.933 26.616c-.815.49-1.148 1.466-.79 2.32L4.776 40 .143 51.065c-.358.854-.025 1.83.79 2.32l10.57 6.354 3.074 11.548c.237.891 1.11 1.495 2.07 1.434l12.468-.782 9.606 7.62c.37.294.825.441 1.279.441.454 0 .908-.147 1.28-.441l9.604-7.62 12.47.782c.96.06 1.832-.543 2.07-1.434l3.072-11.548 10.57-6.354c.816-.49 1.149-1.466.791-2.32L75.224 40zm-9.537 16.92a1.91 1.91 0 0 0-.872 1.144l-2.86 10.747-11.605-.728a2.063 2.063 0 0 0-1.41.437L40 75.612l-8.94-7.092a2.06 2.06 0 0 0-1.41-.437l-11.605.728-2.86-10.748a1.914 1.914 0 0 0-.872-1.144l-9.838-5.914 4.313-10.298c.19-.454.19-.96 0-1.414L4.475 28.995l9.838-5.915c.434-.26.746-.67.872-1.144l2.86-10.747 11.604.728a2.056 2.056 0 0 0 1.41-.438L40 4.388l8.94 7.093c.394.312.898.47 1.41.437l11.606-.728 2.86 10.747c.126.474.438.884.871 1.144l9.838 5.915-4.312 10.298c-.19.454-.19.96 0 1.414l4.313 10.298-9.838 5.915z" fill="#76CEFF"/><path d="M21.558 21.206c.167.04.334.06.498.06.892 0 1.704-.573 1.936-1.434l.165-.616 8.155.511a2.07 2.07 0 0 0 1.41-.437L40 14.31l6.278 4.98a2.07 2.07 0 0 0 1.41.437l9.81-.615c1.103-.069 1.938-.977 1.865-2.028-.072-1.05-1.022-1.847-2.126-1.777l-9.014.564-6.944-5.508a2.075 2.075 0 0 0-2.558 0l-6.944 5.508-9.013-.564c-.958-.06-1.83.54-2.069 1.429l-.578 2.15c-.274 1.02.371 2.058 1.441 2.32zm-1.496 5.629c.167.041.333.06.498.06.891 0 1.704-.572 1.936-1.433l.186-.695c.275-1.02-.37-2.059-1.44-2.32-1.071-.263-2.16.353-2.434 1.373l-.187.695c-.274 1.02.37 2.06 1.441 2.32zm39.878 26.33c-1.071-.263-2.16.352-2.436 1.372l-.187.695c-.275 1.02.37 2.06 1.44 2.321.167.041.334.06.499.06.89 0 1.703-.571 1.935-1.432l.187-.695c.276-1.02-.369-2.059-1.439-2.321zm-1.499 5.628c-1.07-.26-2.16.354-2.433 1.374l-.166.617-8.154-.512a2.065 2.065 0 0 0-1.41.437L40 65.69l-6.278-4.98a2.068 2.068 0 0 0-1.41-.437l-9.811.616c-1.103.069-1.937.977-1.864 2.028.072 1.05 1.029 1.847 2.126 1.777l9.014-.566 6.944 5.509c.37.294.825.44 1.279.44.454 0 .908-.146 1.28-.44l6.942-5.508 9.014.565c.96.06 1.83-.54 2.069-1.43l.578-2.15c.274-1.02-.371-2.058-1.442-2.32zm-19.61-8.973c1.538 0 2.823-.153 3.855-.457a6.25 6.25 0 0 0 2.673-1.57c.751-.741 1.295-1.76 1.633-3.058.337-1.296.506-2.92.506-4.87 0-1.645-.117-3.04-.351-4.185-.235-1.145-.559-2.075-.971-2.79a4.387 4.387 0 0 0-1.717-1.678 7.463 7.463 0 0 0-2.336-.817c-.825-.144-1.848-.215-3.067-.215-1.332 0-2.486.134-3.462.402a7.238 7.238 0 0 0-2.702 1.422c-.825.68-1.449 1.677-1.871 2.991-.422 1.315-.633 2.947-.633 4.897 0 1.95.164 3.573.492 4.87.328 1.297.859 2.316 1.59 3.059.732.742 1.6 1.26 2.603 1.556 1.005.295 2.257.442 3.758.442zm-4.447-9.928c0-1.77.188-3.152.563-4.144.375-.994.872-1.656 1.492-1.986.618-.331 1.454-.496 2.504-.496 1.163 0 2.05.16 2.66.482.61.322 1.069.961 1.379 1.919.31.957.464 2.374.464 4.253 0 1.448-.099 2.633-.296 3.554-.197.922-.506 1.614-.928 2.08-.423.465-.887.778-1.394.939-.506.16-1.153.241-1.941.241s-1.44-.085-1.956-.255c-.516-.17-.975-.496-1.379-.979s-.699-1.18-.887-2.092c-.187-.913-.28-2.084-.28-3.516z" fill="#76CEFF"/></svg>