<svg width="82" height="76" fill="none" xmlns="http://www.w3.org/2000/svg"><path d="M47 34H35v14.5l12 1V34zM19.5 9v12l7.5-7.5V9h-7.5zM2 69V40l2-2h5.5l2.5 2.5V69l-2.5 2H4l-2-2z" fill="#D6F0FF"/><mask id="a" maskUnits="userSpaceOnUse" x="0" y="0" width="82" height="76" fill="#000"><path fill="#fff" d="M0 0h82v76H0z"/><path d="M80.149 47.715c-1.522-2.255-4.586-2.852-6.83-1.331l-10.209 6.89-.03-21.447 3.547 3.35a4.02 4.02 0 0 0 2.77 1.105h.007a4.053 4.053 0 0 0 2.952-1.293 4.08 4.08 0 0 0 1.094-2.928 4.076 4.076 0 0 0-1.28-2.85l-6.725-6.352a1.135 1.135 0 0 0-1.614.053 1.159 1.159 0 0 0 .053 1.628l6.724 6.352c.345.326.543.768.559 1.244A1.781 1.781 0 0 1 69.4 33.98h-.003c-.45 0-.88-.171-1.208-.482l-26.7-25.224a1.135 1.135 0 0 0-1.564.002l-26.631 25.3a1.754 1.754 0 0 1-1.267.484 1.78 1.78 0 0 1-1.716-1.837 1.78 1.78 0 0 1 .556-1.246l28.621-27.19a1.761 1.761 0 0 1 2.423-.003l16.745 15.819c.46.434 1.183.41 1.614-.053a1.159 1.159 0 0 0-.052-1.628L43.473 2.102a4.035 4.035 0 0 0-5.55.008l-9.163 8.704-.002-1.553a1.827 1.827 0 0 0-1.817-1.829h-.003l-6.554.01a1.828 1.828 0 0 0-1.814 1.835l.018 11.2L9.301 29.3a4.076 4.076 0 0 0-1.272 2.854 4.08 4.08 0 0 0 1.101 2.924 4.011 4.011 0 0 0 2.954 1.285 4.006 4.006 0 0 0 2.776-1.112l3.539-3.362.014 10.13a23.87 23.87 0 0 0-3.468-.256h-1.953v-.69c0-2.319-1.87-4.205-4.17-4.205H5.17c-2.3 0-4.17 1.886-4.17 4.204v18.045c0 .636.511 1.151 1.142 1.151.63 0 1.142-.515 1.142-1.151V41.072c0-1.048.845-1.9 1.885-1.9h3.654c1.039 0 1.885.852 1.885 1.9v27.269a1.895 1.895 0 0 1-1.885 1.901H5.169a1.895 1.895 0 0 1-1.885-1.9v-2.016c0-.636-.511-1.151-1.142-1.151-.63 0-1.142.515-1.142 1.151v2.015c0 2.318 1.87 4.204 4.169 4.204h3.654c2.298 0 4.168-1.885 4.168-4.204v-.156l16.723 6.386a.94.94 0 0 0 .094.031 7.916 7.916 0 0 0 2.171.311c.389 0 .774-.03 1.156-.091l24.575-3.573.017-.002a11.983 11.983 0 0 0 5.742-2.612l15.877-14.4c1.848-1.656 2.194-4.458.803-6.52zM26.474 9.735l.006 3.245-5.611 5.33-.014-8.566 5.62-.008zm14.235.958l20.085 18.973.034 25.148-3.233 2.182-3.423-.194-.09-.917c-.32-3.23-2.684-5.828-5.81-6.448l-.02-14.96a2.078 2.078 0 0 0-2.067-2.082h-.003l-10.884.016a2.079 2.079 0 0 0-2.064 2.087l.019 13.043a21.595 21.595 0 0 1-6.139-2.453c-.24-.141-.483-.278-.727-.411-.095-.052-.192-.1-.288-.151-.15-.079-.298-.157-.448-.232-.12-.06-.24-.117-.361-.175-.128-.061-.256-.123-.385-.182-.131-.06-.264-.117-.396-.175a23.644 23.644 0 0 0-1.546-.611 24.975 24.975 0 0 0-1.2-.392 23.235 23.235 0 0 0-.842-.234l-.224-.06-.018-12.743 20.03-19.029zm5.279 38.456l-9.55-1.11-.9-.104-.02-13.222 10.45-.014.02 14.45zm31.836 3.369L61.963 66.904a9.707 9.707 0 0 1-4.588 2.067l-24.564 3.571-.016.002-.017.003a5.401 5.401 0 0 1-2.303-.148l-17.483-6.677V44.066h1.953a21.63 21.63 0 0 1 5.695.763l.051.015c.197.054.393.111.588.17l.105.033c.208.065.415.132.62.203l.064.023c.429.149.853.312 1.272.488l.069.029a22.093 22.093 0 0 1 1.233.57l.07.034c.192.097.383.197.572.3l.107.059c.192.105.382.212.57.323a23.856 23.856 0 0 0 8.822 3.09l12.794 1.486a4.969 4.969 0 0 1 4.078 3.623c.074.27.126.55.154.838l.05.515-23.977-2.118a1.145 1.145 0 0 0-1.238 1.046 1.149 1.149 0 0 0 1.038 1.248l25.35 2.24h.019l.017.002 4.781.27.064.003c.023 0 .045-.004.068-.006.025-.001.05-.002.076-.005.034-.005.067-.012.1-.02.024-.005.049-.009.072-.016a.804.804 0 0 0 .107-.039c.02-.008.039-.013.058-.022a1.12 1.12 0 0 0 .154-.087l4.058-2.739 11.985-8.089a2.642 2.642 0 0 1 3.67.715 2.697 2.697 0 0 1-.437 3.507z"/></mask><path d="M80.149 47.715c-1.522-2.255-4.586-2.852-6.83-1.331l-10.209 6.89-.03-21.447 3.547 3.35a4.02 4.02 0 0 0 2.77 1.105h.007a4.053 4.053 0 0 0 2.952-1.293 4.08 4.08 0 0 0 1.094-2.928 4.076 4.076 0 0 0-1.28-2.85l-6.725-6.352a1.135 1.135 0 0 0-1.614.053 1.159 1.159 0 0 0 .053 1.628l6.724 6.352c.345.326.543.768.559 1.244A1.781 1.781 0 0 1 69.4 33.98h-.003c-.45 0-.88-.171-1.208-.482l-26.7-25.224a1.135 1.135 0 0 0-1.564.002l-26.631 25.3a1.754 1.754 0 0 1-1.267.484 1.78 1.78 0 0 1-1.716-1.837 1.78 1.78 0 0 1 .556-1.246l28.621-27.19a1.761 1.761 0 0 1 2.423-.003l16.745 15.819c.46.434 1.183.41 1.614-.053a1.159 1.159 0 0 0-.052-1.628L43.473 2.102a4.035 4.035 0 0 0-5.55.008l-9.163 8.704-.002-1.553a1.827 1.827 0 0 0-1.817-1.829h-.003l-6.554.01a1.828 1.828 0 0 0-1.814 1.835l.018 11.2L9.301 29.3a4.076 4.076 0 0 0-1.272 2.854 4.08 4.08 0 0 0 1.101 2.924 4.011 4.011 0 0 0 2.954 1.285 4.006 4.006 0 0 0 2.776-1.112l3.539-3.362.014 10.13a23.87 23.87 0 0 0-3.468-.256h-1.953v-.69c0-2.319-1.87-4.205-4.17-4.205H5.17c-2.3 0-4.17 1.886-4.17 4.204v18.045c0 .636.511 1.151 1.142 1.151.63 0 1.142-.515 1.142-1.151V41.072c0-1.048.845-1.9 1.885-1.9h3.654c1.039 0 1.885.852 1.885 1.9v27.269a1.895 1.895 0 0 1-1.885 1.901H5.169a1.895 1.895 0 0 1-1.885-1.9v-2.016c0-.636-.511-1.151-1.142-1.151-.63 0-1.142.515-1.142 1.151v2.015c0 2.318 1.87 4.204 4.169 4.204h3.654c2.298 0 4.168-1.885 4.168-4.204v-.156l16.723 6.386a.94.94 0 0 0 .094.031 7.916 7.916 0 0 0 2.171.311c.389 0 .774-.03 1.156-.091l24.575-3.573.017-.002a11.983 11.983 0 0 0 5.742-2.612l15.877-14.4c1.848-1.656 2.194-4.458.803-6.52zM26.474 9.735l.006 3.245-5.611 5.33-.014-8.566 5.62-.008zm14.235.958l20.085 18.973.034 25.148-3.233 2.182-3.423-.194-.09-.917c-.32-3.23-2.684-5.828-5.81-6.448l-.02-14.96a2.078 2.078 0 0 0-2.067-2.082h-.003l-10.884.016a2.079 2.079 0 0 0-2.064 2.087l.019 13.043a21.595 21.595 0 0 1-6.139-2.453c-.24-.141-.483-.278-.727-.411-.095-.052-.192-.1-.288-.151-.15-.079-.298-.157-.448-.232-.12-.06-.24-.117-.361-.175-.128-.061-.256-.123-.385-.182-.131-.06-.264-.117-.396-.175a23.644 23.644 0 0 0-1.546-.611 24.975 24.975 0 0 0-1.2-.392 23.235 23.235 0 0 0-.842-.234l-.224-.06-.018-12.743 20.03-19.029zm5.279 38.456l-9.55-1.11-.9-.104-.02-13.222 10.45-.014.02 14.45zm31.836 3.369L61.963 66.904a9.707 9.707 0 0 1-4.588 2.067l-24.564 3.571-.016.002-.017.003a5.401 5.401 0 0 1-2.303-.148l-17.483-6.677V44.066h1.953a21.63 21.63 0 0 1 5.695.763l.051.015c.197.054.393.111.588.17l.105.033c.208.065.415.132.62.203l.064.023c.429.149.853.312 1.272.488l.069.029a22.093 22.093 0 0 1 1.233.57l.07.034c.192.097.383.197.572.3l.107.059c.192.105.382.212.57.323a23.856 23.856 0 0 0 8.822 3.09l12.794 1.486a4.969 4.969 0 0 1 4.078 3.623c.074.27.126.55.154.838l.05.515-23.977-2.118a1.145 1.145 0 0 0-1.238 1.046 1.149 1.149 0 0 0 1.038 1.248l25.35 2.24h.019l.017.002 4.781.27.064.003c.023 0 .045-.004.068-.006.025-.001.05-.002.076-.005.034-.005.067-.012.1-.02.024-.005.049-.009.072-.016a.804.804 0 0 0 .107-.039c.02-.008.039-.013.058-.022a1.12 1.12 0 0 0 .154-.087l4.058-2.739 11.985-8.089a2.642 2.642 0 0 1 3.67.715 2.697 2.697 0 0 1-.437 3.507z" fill="#76CEFF"/><path d="M80.149 47.715c-1.522-2.255-4.586-2.852-6.83-1.331l-10.209 6.89-.03-21.447 3.547 3.35a4.02 4.02 0 0 0 2.77 1.105h.007a4.053 4.053 0 0 0 2.952-1.293 4.08 4.08 0 0 0 1.094-2.928 4.076 4.076 0 0 0-1.28-2.85l-6.725-6.352a1.135 1.135 0 0 0-1.614.053 1.159 1.159 0 0 0 .053 1.628l6.724 6.352c.345.326.543.768.559 1.244A1.781 1.781 0 0 1 69.4 33.98h-.003c-.45 0-.88-.171-1.208-.482l-26.7-25.224a1.135 1.135 0 0 0-1.564.002l-26.631 25.3a1.754 1.754 0 0 1-1.267.484 1.78 1.78 0 0 1-1.716-1.837 1.78 1.78 0 0 1 .556-1.246l28.621-27.19a1.761 1.761 0 0 1 2.423-.003l16.745 15.819c.46.434 1.183.41 1.614-.053a1.159 1.159 0 0 0-.052-1.628L43.473 2.102a4.035 4.035 0 0 0-5.55.008l-9.163 8.704-.002-1.553a1.827 1.827 0 0 0-1.817-1.829h-.003l-6.554.01a1.828 1.828 0 0 0-1.814 1.835l.018 11.2L9.301 29.3a4.076 4.076 0 0 0-1.272 2.854 4.08 4.08 0 0 0 1.101 2.924 4.011 4.011 0 0 0 2.954 1.285 4.006 4.006 0 0 0 2.776-1.112l3.539-3.362.014 10.13a23.87 23.87 0 0 0-3.468-.256h-1.953v-.69c0-2.319-1.87-4.205-4.17-4.205H5.17c-2.3 0-4.17 1.886-4.17 4.204v18.045c0 .636.511 1.151 1.142 1.151.63 0 1.142-.515 1.142-1.151V41.072c0-1.048.845-1.9 1.885-1.9h3.654c1.039 0 1.885.852 1.885 1.9v27.269a1.895 1.895 0 0 1-1.885 1.901H5.169a1.895 1.895 0 0 1-1.885-1.9v-2.016c0-.636-.511-1.151-1.142-1.151-.63 0-1.142.515-1.142 1.151v2.015c0 2.318 1.87 4.204 4.169 4.204h3.654c2.298 0 4.168-1.885 4.168-4.204v-.156l16.723 6.386a.94.94 0 0 0 .094.031 7.916 7.916 0 0 0 2.171.311c.389 0 .774-.03 1.156-.091l24.575-3.573.017-.002a11.983 11.983 0 0 0 5.742-2.612l15.877-14.4c1.848-1.656 2.194-4.458.803-6.52zM26.474 9.735l.006 3.245-5.611 5.33-.014-8.566 5.62-.008zm14.235.958l20.085 18.973.034 25.148-3.233 2.182-3.423-.194-.09-.917c-.32-3.23-2.684-5.828-5.81-6.448l-.02-14.96a2.078 2.078 0 0 0-2.067-2.082h-.003l-10.884.016a2.079 2.079 0 0 0-2.064 2.087l.019 13.043a21.595 21.595 0 0 1-6.139-2.453c-.24-.141-.483-.278-.727-.411-.095-.052-.192-.1-.288-.151-.15-.079-.298-.157-.448-.232-.12-.06-.24-.117-.361-.175-.128-.061-.256-.123-.385-.182-.131-.06-.264-.117-.396-.175a23.644 23.644 0 0 0-1.546-.611 24.975 24.975 0 0 0-1.2-.392 23.235 23.235 0 0 0-.842-.234l-.224-.06-.018-12.743 20.03-19.029zm5.279 38.456l-9.55-1.11-.9-.104-.02-13.222 10.45-.014.02 14.45zm31.836 3.369L61.963 66.904a9.707 9.707 0 0 1-4.588 2.067l-24.564 3.571-.016.002-.017.003a5.401 5.401 0 0 1-2.303-.148l-17.483-6.677V44.066h1.953a21.63 21.63 0 0 1 5.695.763l.051.015c.197.054.393.111.588.17l.105.033c.208.065.415.132.62.203l.064.023c.429.149.853.312 1.272.488l.069.029a22.093 22.093 0 0 1 1.233.57l.07.034c.192.097.383.197.572.3l.107.059c.192.105.382.212.57.323a23.856 23.856 0 0 0 8.822 3.09l12.794 1.486a4.969 4.969 0 0 1 4.078 3.623c.074.27.126.55.154.838l.05.515-23.977-2.118a1.145 1.145 0 0 0-1.238 1.046 1.149 1.149 0 0 0 1.038 1.248l25.35 2.24h.019l.017.002 4.781.27.064.003c.023 0 .045-.004.068-.006.025-.001.05-.002.076-.005.034-.005.067-.012.1-.02.024-.005.049-.009.072-.016a.804.804 0 0 0 .107-.039c.02-.008.039-.013.058-.022a1.12 1.12 0 0 0 .154-.087l4.058-2.739 11.985-8.089a2.642 2.642 0 0 1 3.67.715 2.697 2.697 0 0 1-.437 3.507z" stroke="#76CEFF" mask="url(#a)"/></svg>