<svg width="82" height="80" fill="none" xmlns="http://www.w3.org/2000/svg"><path d="M67.016 42.272a1.16 1.16 0 0 0-1.164 1.158c0 .811-.663 1.47-1.478 1.47s-1.479-.659-1.479-1.47c0-.64-.52-1.158-1.164-1.158a1.16 1.16 0 0 0-1.164 1.158c0 2.088 1.708 3.787 3.807 3.787s3.806-1.699 3.806-3.787c0-.64-.52-1.158-1.164-1.158z" fill="#76CEFF"/><path opacity=".3" d="M55 24.5L53.5 29l1 5 4 3.5h6l2.5-4 1-9.5-2-3-11 3.5z" fill="#76CEFF"/><mask id="a" maskUnits="userSpaceOnUse" x="0" y="0" width="82" height="80" fill="#000"><path fill="#fff" d="M0 0h82v80H0z"/><path d="M77.944 42.46l-3.276-1.044a1.367 1.367 0 0 1-.885-.891 20.978 20.978 0 0 0-3.098-6.096 22.4 22.4 0 0 0-2.07-2.428c.484-2.11.747-4.498.713-6.561-.049-2.952-.642-4.683-1.812-5.292-.63-.33-2.55-1.329-12.935 3.401-.246.112-.476.25-.688.408a45.23 45.23 0 0 0-2.136-.516c-.087-.019-.176-.035-.263-.054a15.711 15.711 0 0 0 1.425-5.866 1.16 1.16 0 0 0-1.111-1.209 1.16 1.16 0 0 0-1.215 1.105 13.426 13.426 0 0 1-3.959 8.934 13.489 13.489 0 0 1-4.904 3.116 33.935 33.935 0 0 0-9.372 0 13.486 13.486 0 0 1-4.904-3.116 13.37 13.37 0 0 1-3.972-9.541 13.37 13.37 0 0 1 3.972-9.541 13.508 13.508 0 0 1 9.59-3.952c3.623 0 7.029 1.403 9.59 3.952a13.489 13.489 0 0 1 2.528 3.473c.29.571.99.802 1.564.514.574-.288.805-.985.516-1.556a15.8 15.8 0 0 0-2.961-4.07A15.828 15.828 0 0 0 37.044 1a15.828 15.828 0 0 0-11.236 4.63 15.666 15.666 0 0 0-4.655 11.18c0 4.222 1.653 8.193 4.655 11.179a15.859 15.859 0 0 0 2.804 2.222 32.5 32.5 0 0 0-2.152.634c-.61.203-.94.859-.735 1.466.203.606.863.934 1.473.731a31.397 31.397 0 0 1 19.693 0 1.169 1.169 0 0 0 1.473-.731 1.157 1.157 0 0 0-.735-1.466 32.877 32.877 0 0 0-2.153-.634 15.859 15.859 0 0 0 4.834-4.7 44.442 44.442 0 0 1 2.2.483c-.013.05-.026.1-.037.152-.568 2.68-.53 5.051.11 7.046.575 1.793 1.614 3.246 3.087 4.318 1.736 1.264 3.832 1.81 5.73 1.81 1.43 0 2.747-.31 3.715-.855 1.094-.617 2.01-1.916 2.737-3.867.335.39.653.789.953 1.197a18.667 18.667 0 0 1 2.757 5.425 3.693 3.693 0 0 0 2.395 2.403l3.277 1.044a2.052 2.052 0 0 1 1.438 1.96v5.406c0 .898-.578 1.685-1.438 1.96l-5.28 1.682a3.597 3.597 0 0 0-2.012 1.626c-2.074 3.566-5.335 6.518-9.693 8.772-.504.26-.852.727-.957 1.28L57.6 76.26a.523.523 0 0 1-.514.423h-5.498a.523.523 0 0 1-.514-.423l-.937-4.923a1.828 1.828 0 0 0-2.08-1.464 48.914 48.914 0 0 1-7.253.537c-1.818 0-3.613-.101-5.336-.3a1.843 1.843 0 0 0-2.017 1.472l-.89 4.678a.523.523 0 0 1-.514.423H26.55a.524.524 0 0 1-.515-.427l-1.628-8.413a1.82 1.82 0 0 0-.94-1.265c-7.428-3.945-11.354-10.537-11.354-19.062 0-4.307.947-8.116 2.815-11.32 1.743-2.991 4.289-5.464 7.567-7.35.556-.32.746-1.03.424-1.583a1.168 1.168 0 0 0-1.59-.423c-6.356 3.658-10.19 9.302-11.245 16.47-.112-.01-.225-.02-.336-.032a5.741 5.741 0 0 0-.427-2.31c-.675-1.671-2.063-2.877-3.535-3.072-1.16-.155-2.264.335-3.03 1.342-1.11 1.46-.93 2.616-.582 3.328.586 1.202 2.094 2.053 4.595 2.587a4.54 4.54 0 0 1-.227.309c-1.478 1.844-3.22 2.252-4.35 2.29A1.22 1.22 0 0 0 1 48.962v.006c0 .65.515 1.18 1.168 1.21.084.003.171.005.262.005 1.43 0 3.727-.525 5.933-3.277a6.6 6.6 0 0 0 .85-1.366c.22.025.43.046.633.065v-.001c-.04.627-.062 1.264-.062 1.912 0 4.824 1.156 9.124 3.435 12.783 2.102 3.373 5.11 6.135 8.946 8.212l1.583 8.18A2.85 2.85 0 0 0 26.55 79h5.498a2.85 2.85 0 0 0 2.801-2.31l.805-4.229c1.671.176 3.402.265 5.151.265 2.4 0 4.797-.166 7.133-.494l.849 4.459A2.85 2.85 0 0 0 51.588 79h5.498a2.85 2.85 0 0 0 2.802-2.31l1.647-8.672c4.65-2.448 8.157-5.662 10.422-9.557a1.28 1.28 0 0 1 .708-.58l5.28-1.682A4.364 4.364 0 0 0 81 52.032v-5.405a4.363 4.363 0 0 0-3.056-4.166zm-11.12-13.765c-.447 3.812-1.65 7.074-2.857 7.754-1.373.774-4.543.923-6.922-.809-2.383-1.734-3.176-4.852-2.294-9.017.089-.418.388-.78.8-.968 5.828-2.654 9.189-3.522 10.437-3.522.188 0 .329.02.422.056.375.398.867 2.658.415 6.506zM4.27 41.555c-.12-.247.164-.682.344-.92.286-.375.55-.451.748-.451a.85.85 0 0 1 .117.008c.536.07 1.286.657 1.683 1.64.094.23.215.614.244 1.092-1.612-.332-2.864-.811-3.136-1.37z"/></mask><path d="M77.944 42.46l-3.276-1.044a1.367 1.367 0 0 1-.885-.891 20.978 20.978 0 0 0-3.098-6.096 22.4 22.4 0 0 0-2.07-2.428c.484-2.11.747-4.498.713-6.561-.049-2.952-.642-4.683-1.812-5.292-.63-.33-2.55-1.329-12.935 3.401-.246.112-.476.25-.688.408a45.23 45.23 0 0 0-2.136-.516c-.087-.019-.176-.035-.263-.054a15.711 15.711 0 0 0 1.425-5.866 1.16 1.16 0 0 0-1.111-1.209 1.16 1.16 0 0 0-1.215 1.105 13.426 13.426 0 0 1-3.959 8.934 13.489 13.489 0 0 1-4.904 3.116 33.935 33.935 0 0 0-9.372 0 13.486 13.486 0 0 1-4.904-3.116 13.37 13.37 0 0 1-3.972-9.541 13.37 13.37 0 0 1 3.972-9.541 13.508 13.508 0 0 1 9.59-3.952c3.623 0 7.029 1.403 9.59 3.952a13.489 13.489 0 0 1 2.528 3.473c.29.571.99.802 1.564.514.574-.288.805-.985.516-1.556a15.8 15.8 0 0 0-2.961-4.07A15.828 15.828 0 0 0 37.044 1a15.828 15.828 0 0 0-11.236 4.63 15.666 15.666 0 0 0-4.655 11.18c0 4.222 1.653 8.193 4.655 11.179a15.859 15.859 0 0 0 2.804 2.222 32.5 32.5 0 0 0-2.152.634c-.61.203-.94.859-.735 1.466.203.606.863.934 1.473.731a31.397 31.397 0 0 1 19.693 0 1.169 1.169 0 0 0 1.473-.731 1.157 1.157 0 0 0-.735-1.466 32.877 32.877 0 0 0-2.153-.634 15.859 15.859 0 0 0 4.834-4.7 44.442 44.442 0 0 1 2.2.483c-.013.05-.026.1-.037.152-.568 2.68-.53 5.051.11 7.046.575 1.793 1.614 3.246 3.087 4.318 1.736 1.264 3.832 1.81 5.73 1.81 1.43 0 2.747-.31 3.715-.855 1.094-.617 2.01-1.916 2.737-3.867.335.39.653.789.953 1.197a18.667 18.667 0 0 1 2.757 5.425 3.693 3.693 0 0 0 2.395 2.403l3.277 1.044a2.052 2.052 0 0 1 1.438 1.96v5.406c0 .898-.578 1.685-1.438 1.96l-5.28 1.682a3.597 3.597 0 0 0-2.012 1.626c-2.074 3.566-5.335 6.518-9.693 8.772-.504.26-.852.727-.957 1.28L57.6 76.26a.523.523 0 0 1-.514.423h-5.498a.523.523 0 0 1-.514-.423l-.937-4.923a1.828 1.828 0 0 0-2.08-1.464 48.914 48.914 0 0 1-7.253.537c-1.818 0-3.613-.101-5.336-.3a1.843 1.843 0 0 0-2.017 1.472l-.89 4.678a.523.523 0 0 1-.514.423H26.55a.524.524 0 0 1-.515-.427l-1.628-8.413a1.82 1.82 0 0 0-.94-1.265c-7.428-3.945-11.354-10.537-11.354-19.062 0-4.307.947-8.116 2.815-11.32 1.743-2.991 4.289-5.464 7.567-7.35.556-.32.746-1.03.424-1.583a1.168 1.168 0 0 0-1.59-.423c-6.356 3.658-10.19 9.302-11.245 16.47-.112-.01-.225-.02-.336-.032a5.741 5.741 0 0 0-.427-2.31c-.675-1.671-2.063-2.877-3.535-3.072-1.16-.155-2.264.335-3.03 1.342-1.11 1.46-.93 2.616-.582 3.328.586 1.202 2.094 2.053 4.595 2.587a4.54 4.54 0 0 1-.227.309c-1.478 1.844-3.22 2.252-4.35 2.29A1.22 1.22 0 0 0 1 48.962v.006c0 .65.515 1.18 1.168 1.21.084.003.171.005.262.005 1.43 0 3.727-.525 5.933-3.277a6.6 6.6 0 0 0 .85-1.366c.22.025.43.046.633.065v-.001c-.04.627-.062 1.264-.062 1.912 0 4.824 1.156 9.124 3.435 12.783 2.102 3.373 5.11 6.135 8.946 8.212l1.583 8.18A2.85 2.85 0 0 0 26.55 79h5.498a2.85 2.85 0 0 0 2.801-2.31l.805-4.229c1.671.176 3.402.265 5.151.265 2.4 0 4.797-.166 7.133-.494l.849 4.459A2.85 2.85 0 0 0 51.588 79h5.498a2.85 2.85 0 0 0 2.802-2.31l1.647-8.672c4.65-2.448 8.157-5.662 10.422-9.557a1.28 1.28 0 0 1 .708-.58l5.28-1.682A4.364 4.364 0 0 0 81 52.032v-5.405a4.363 4.363 0 0 0-3.056-4.166zm-11.12-13.765c-.447 3.812-1.65 7.074-2.857 7.754-1.373.774-4.543.923-6.922-.809-2.383-1.734-3.176-4.852-2.294-9.017.089-.418.388-.78.8-.968 5.828-2.654 9.189-3.522 10.437-3.522.188 0 .329.02.422.056.375.398.867 2.658.415 6.506zM4.27 41.555c-.12-.247.164-.682.344-.92.286-.375.55-.451.748-.451a.85.85 0 0 1 .117.008c.536.07 1.286.657 1.683 1.64.094.23.215.614.244 1.092-1.612-.332-2.864-.811-3.136-1.37z" fill="#76CEFF"/><path d="M77.944 42.46l-3.276-1.044a1.367 1.367 0 0 1-.885-.891 20.978 20.978 0 0 0-3.098-6.096 22.4 22.4 0 0 0-2.07-2.428c.484-2.11.747-4.498.713-6.561-.049-2.952-.642-4.683-1.812-5.292-.63-.33-2.55-1.329-12.935 3.401-.246.112-.476.25-.688.408a45.23 45.23 0 0 0-2.136-.516c-.087-.019-.176-.035-.263-.054a15.711 15.711 0 0 0 1.425-5.866 1.16 1.16 0 0 0-1.111-1.209 1.16 1.16 0 0 0-1.215 1.105 13.426 13.426 0 0 1-3.959 8.934 13.489 13.489 0 0 1-4.904 3.116 33.935 33.935 0 0 0-9.372 0 13.486 13.486 0 0 1-4.904-3.116 13.37 13.37 0 0 1-3.972-9.541 13.37 13.37 0 0 1 3.972-9.541 13.508 13.508 0 0 1 9.59-3.952c3.623 0 7.029 1.403 9.59 3.952a13.489 13.489 0 0 1 2.528 3.473c.29.571.99.802 1.564.514.574-.288.805-.985.516-1.556a15.8 15.8 0 0 0-2.961-4.07A15.828 15.828 0 0 0 37.044 1a15.828 15.828 0 0 0-11.236 4.63 15.666 15.666 0 0 0-4.655 11.18c0 4.222 1.653 8.193 4.655 11.179a15.859 15.859 0 0 0 2.804 2.222 32.5 32.5 0 0 0-2.152.634c-.61.203-.94.859-.735 1.466.203.606.863.934 1.473.731a31.397 31.397 0 0 1 19.693 0 1.169 1.169 0 0 0 1.473-.731 1.157 1.157 0 0 0-.735-1.466 32.877 32.877 0 0 0-2.153-.634 15.859 15.859 0 0 0 4.834-4.7 44.442 44.442 0 0 1 2.2.483c-.013.05-.026.1-.037.152-.568 2.68-.53 5.051.11 7.046.575 1.793 1.614 3.246 3.087 4.318 1.736 1.264 3.832 1.81 5.73 1.81 1.43 0 2.747-.31 3.715-.855 1.094-.617 2.01-1.916 2.737-3.867.335.39.653.789.953 1.197a18.667 18.667 0 0 1 2.757 5.425 3.693 3.693 0 0 0 2.395 2.403l3.277 1.044a2.052 2.052 0 0 1 1.438 1.96v5.406c0 .898-.578 1.685-1.438 1.96l-5.28 1.682a3.597 3.597 0 0 0-2.012 1.626c-2.074 3.566-5.335 6.518-9.693 8.772-.504.26-.852.727-.957 1.28L57.6 76.26a.523.523 0 0 1-.514.423h-5.498a.523.523 0 0 1-.514-.423l-.937-4.923a1.828 1.828 0 0 0-2.08-1.464 48.914 48.914 0 0 1-7.253.537c-1.818 0-3.613-.101-5.336-.3a1.843 1.843 0 0 0-2.017 1.472l-.89 4.678a.523.523 0 0 1-.514.423H26.55a.524.524 0 0 1-.515-.427l-1.628-8.413a1.82 1.82 0 0 0-.94-1.265c-7.428-3.945-11.354-10.537-11.354-19.062 0-4.307.947-8.116 2.815-11.32 1.743-2.991 4.289-5.464 7.567-7.35.556-.32.746-1.03.424-1.583a1.168 1.168 0 0 0-1.59-.423c-6.356 3.658-10.19 9.302-11.245 16.47-.112-.01-.225-.02-.336-.032a5.741 5.741 0 0 0-.427-2.31c-.675-1.671-2.063-2.877-3.535-3.072-1.16-.155-2.264.335-3.03 1.342-1.11 1.46-.93 2.616-.582 3.328.586 1.202 2.094 2.053 4.595 2.587a4.54 4.54 0 0 1-.227.309c-1.478 1.844-3.22 2.252-4.35 2.29A1.22 1.22 0 0 0 1 48.962v.006c0 .65.515 1.18 1.168 1.21.084.003.171.005.262.005 1.43 0 3.727-.525 5.933-3.277a6.6 6.6 0 0 0 .85-1.366c.22.025.43.046.633.065v-.001c-.04.627-.062 1.264-.062 1.912 0 4.824 1.156 9.124 3.435 12.783 2.102 3.373 5.11 6.135 8.946 8.212l1.583 8.18A2.85 2.85 0 0 0 26.55 79h5.498a2.85 2.85 0 0 0 2.801-2.31l.805-4.229c1.671.176 3.402.265 5.151.265 2.4 0 4.797-.166 7.133-.494l.849 4.459A2.85 2.85 0 0 0 51.588 79h5.498a2.85 2.85 0 0 0 2.802-2.31l1.647-8.672c4.65-2.448 8.157-5.662 10.422-9.557a1.28 1.28 0 0 1 .708-.58l5.28-1.682A4.364 4.364 0 0 0 81 52.032v-5.405a4.363 4.363 0 0 0-3.056-4.166zm-11.12-13.765c-.447 3.812-1.65 7.074-2.857 7.754-1.373.774-4.543.923-6.922-.809-2.383-1.734-3.176-4.852-2.294-9.017.089-.418.388-.78.8-.968 5.828-2.654 9.189-3.522 10.437-3.522.188 0 .329.02.422.056.375.398.867 2.658.415 6.506zM4.27 41.555c-.12-.247.164-.682.344-.92.286-.375.55-.451.748-.451a.85.85 0 0 1 .117.008c.536.07 1.286.657 1.683 1.64.094.23.215.614.244 1.092-1.612-.332-2.864-.811-3.136-1.37z" stroke="#76CEFF" mask="url(#a)"/><path d="M38.175 15.482v-4.145c1.437.102 1.97.755 2.463.755.616 0 .903-.775.903-1.163 0-1.001-1.97-1.43-3.366-1.47v-.552c0-.245-.308-.47-.616-.47-.35 0-.595.225-.595.47v.592c-1.95.204-3.9 1.225-3.9 3.798 0 2.614 2.053 3.349 3.9 4.002v4.799c-2.094-.163-2.648-1.593-3.325-1.593-.514 0-.944.674-.944 1.164 0 1 1.724 2.369 4.269 2.41v.633c0 .245.246.47.595.47.308 0 .616-.225.616-.47v-.695c2.217-.306 3.735-1.694 3.735-4.206 0-2.777-1.95-3.676-3.735-4.33zm-1.088-.388c-1.088-.408-1.97-.837-1.97-2 0-1.063.82-1.573 1.97-1.716v3.716zm.964 6.963v-4.308c1.006.428 1.806 1 1.806 2.286 0 1.165-.697 1.818-1.806 2.022z" fill="#76CEFF"/></svg>