<svg width="67" height="80" fill="none" xmlns="http://www.w3.org/2000/svg"><path d="M65.325 14.166c-5.228 0-9.195-3.044-13.397-6.267C47.102 4.197 41.632 0 33.5 0c-8.132 0-13.602 4.197-18.428 7.9-4.201 3.222-8.169 6.266-13.397 6.266-.925 0-1.675.747-1.675 1.667 0 19.46 2.436 32.418 7.898 42.015 5.423 9.53 13.497 15.456 24.765 21.929a1.68 1.68 0 0 0 1.674 0c11.268-6.473 19.342-12.4 24.766-21.93C64.564 48.252 67 35.294 67 15.834c0-.92-.75-1.667-1.675-1.667zM33.5 76.406C13.296 64.683 3.62 54.584 3.356 17.416c5.518-.553 9.703-3.763 13.761-6.877C21.735 6.997 26.51 3.333 33.5 3.333c6.99 0 11.765 3.663 16.383 7.206 4.058 3.114 8.243 6.324 13.761 6.877-.264 37.168-9.94 47.267-30.144 58.99z" fill="#76CEFF"/><path opacity=".3" d="M15 38.694L19.5 34l7 7L48 21l4.5 4-21 20.5-5.418 3.303L15 38.694z" fill="#76CEFF"/><path d="M13.71 19.035a1.68 1.68 0 0 0-2.263-.698c-.208.109-.42.216-.631.32a1.663 1.663 0 0 0-.763 2.231 1.676 1.676 0 0 0 2.243.76c.239-.118.477-.239.712-.362a1.663 1.663 0 0 0 .702-2.251zm44.222 13.069a1.672 1.672 0 0 0 1.82-1.509l.055-.64a1.67 1.67 0 0 0-1.527-1.801 1.672 1.672 0 0 0-1.81 1.52l-.055.62a1.67 1.67 0 0 0 1.517 1.81zM17.02 18.457c.34 0 .683-.102.979-.315.97-.697 1.916-1.413 2.83-2.106C25.103 12.797 28.795 10 33.5 10a1.67 1.67 0 0 0 1.675-1.667c0-.92-.75-1.667-1.675-1.667-5.834 0-10.141 3.263-14.701 6.718a135.01 135.01 0 0 1-2.761 2.055c-.75.54-.919 1.58-.377 2.327.327.452.84.692 1.36.692zM33.5 68.639c-4.287-2.63-9.464-6.161-13.346-10.715a1.68 1.68 0 0 0-2.36-.194 1.661 1.661 0 0 0-.195 2.35c4.46 5.232 10.377 9.128 15.033 11.938l.026.013c.04.023.08.043.123.063.027.013.053.027.08.038.038.015.076.027.115.04.032.01.064.023.097.032.035.009.07.014.106.021.036.007.071.016.107.02.051.007.102.009.154.01.02.001.039.005.058.005h.004c.02 0 .04-.004.059-.004.051-.002.102-.004.153-.01.036-.005.07-.014.106-.02.036-.007.072-.013.108-.022.032-.009.064-.02.096-.031.038-.013.077-.025.115-.04l.08-.038c.042-.02.084-.04.124-.064l.026-.013c4.656-2.81 10.572-6.705 15.032-11.938 5.086-5.97 8.292-14.047 9.8-24.694a1.668 1.668 0 0 0-1.424-1.883 1.673 1.673 0 0 0-1.893 1.417c-1.417 10.005-4.373 17.53-9.038 23.004-3.881 4.554-9.058 8.085-13.346 10.715z" fill="#76CEFF"/><path d="M44.31 20.85L26.837 38.238l-4.146-4.126a5.421 5.421 0 0 0-3.85-1.582 5.422 5.422 0 0 0-3.85 1.583 5.406 5.406 0 0 0 0 7.661l8.008 7.967.07.068.03.03.07.065.038.034.072.062.034.029.073.06.025.02.074.06.042.032.076.057.032.023.077.054.034.024.078.052.037.025.08.05.031.02.08.047.032.02.08.045.048.027.082.043.025.014.083.041.044.022.083.04.035.016.043.02.091.04.085.034.024.01.085.032.039.015.087.032.041.014.043.014.086.029.087.026c.013.004.025.008.038.01l.088.025.037.01.088.023.036.008.089.02.038.01.088.017.051.01.044.008.08.014.089.013c.013.003.027.004.04.006l.09.011.039.005.042.005.085.009.09.007.052.004.042.002c.028.002.056.004.084.004l.09.003h.028l.09.002h.049l.09-.001h.027l.091-.004c.028 0 .056-.002.084-.004l.043-.002.052-.004.09-.008a1.55 1.55 0 0 0 .084-.008l.042-.005.037-.004.09-.012c.015-.002.029-.003.043-.006l.09-.013.081-.015.043-.007a.825.825 0 0 0 .05-.01l.088-.018.034-.007.09-.02.042-.01.088-.023a.878.878 0 0 0 .035-.01l.087-.024.036-.01.088-.027.082-.027.043-.014.046-.016.087-.032c.013-.004.026-.01.038-.015l.086-.033.028-.011.085-.035c.027-.01.054-.023.08-.035l.043-.02a.33.33 0 0 0 .043-.019l.083-.039.033-.016.082-.042c.027-.013.053-.027.079-.042l.043-.023.036-.02.08-.046a1.34 1.34 0 0 0 .04-.022l.08-.048.037-.024.078-.05c.01-.005.018-.011.026-.017l.079-.052.04-.028.076-.054.039-.029.075-.057.028-.02.074-.06a.851.851 0 0 0 .058-.047l.042-.035.044-.036.072-.064.027-.024.071-.066.03-.029.07-.067c.016-.014.03-.03.045-.044l21.296-21.19a5.404 5.404 0 0 0 0-7.662 5.42 5.42 0 0 0-3.85-1.582 5.422 5.422 0 0 0-3.85 1.583zm5.332 5.305L28.318 47.372l-.011.011-.156.138-.006.005-.199.14-.283.146h-.002l-.187.07a.1.1 0 0 0-.006.001l-.29.067-.01.002-.145.018-.01.001-.083.005h-.01l-.083.002h-.053l-.03-.001a.13.13 0 0 0-.01 0l-.084-.006-.01-.001-.144-.017-.012-.003-.288-.067h-.002l-.164-.06-.315-.159-.29-.217-8.076-8.031a2.08 2.08 0 0 1 1.482-3.554 2.08 2.08 0 0 1 1.48.606l5.331 5.304a1.678 1.678 0 0 0 2.37 0L46.68 23.209a2.08 2.08 0 0 1 1.48-.606 2.08 2.08 0 0 1 1.481 3.553z" fill="#76CEFF"/></svg>