<svg width="80" height="80" fill="none" xmlns="http://www.w3.org/2000/svg"><path opacity=".3" d="M10.5 47.5L48 11l21.5 21.5-37 36.5-22-21.5z" fill="#76CEFF"/><path d="M27.781 32.331a1.56 1.56 0 0 0 0-2.209 1.561 1.561 0 0 0-2.21 0 1.563 1.563 0 0 0 2.21 2.21zm15.469 2.21a4.692 4.692 0 0 0 0-6.628 4.686 4.686 0 0 0-6.63 0 4.684 4.684 0 0 0 0 6.628 4.693 4.693 0 0 0 6.63 0zm-4.42-4.419a1.563 1.563 0 0 1 2.21 2.209c-.61.609-1.601.61-2.21 0a1.56 1.56 0 0 1 0-2.209zm-2.21 15.466a4.686 4.686 0 0 0 0 6.63 4.686 4.686 0 0 0 6.63 0 4.693 4.693 0 0 0 0-6.63 4.687 4.687 0 0 0-6.63 0zm4.42 4.421a1.563 1.563 0 1 1-2.21-2.21 1.563 1.563 0 0 1 2.21 2.21zm-13.686-7.428c.17.847.993 1.395 1.838 1.226l22.097-4.42a1.563 1.563 0 0 0-.613-3.064l-22.096 4.42a1.562 1.562 0 0 0-1.226 1.838z" fill="#76CEFF"/><path d="M47.501 8.84c-.414 0-.812.164-1.105.457L29.992 25.7a1.563 1.563 0 0 0 2.21 2.21l15.3-15.3L67.387 32.5 32.31 67.577 12.423 47.691l10.94-10.941a1.562 1.562 0 1 0-2.21-2.21L9.108 46.586c-.61.61-.61 1.599 0 2.21l22.097 22.096c.61.61 1.599.61 2.21 0l37.287-37.288c.61-.61.61-1.6 0-2.21L48.606 9.296A1.562 1.562 0 0 0 47.5 8.84z" fill="#76CEFF"/><path d="M77.332.458l-6.707 6.706C66.712 4.21 61.31 4.161 57.43 7.042L51.936 1.39l-.016-.016a4.684 4.684 0 0 0-6.63.002L1.373 45.481a4.686 4.686 0 0 0 0 6.63l6.197 6.197c-1.384 3.962-.385 8.453 2.641 11.48 3.027 3.026 7.518 4.024 11.48 2.641l6.197 6.197a4.686 4.686 0 0 0 6.628.003l44.109-43.92a4.684 4.684 0 0 0 0-6.63l-.016-.015-5.652-5.492c2.87-3.854 2.86-9.26-.123-13.198l6.706-6.706a1.563 1.563 0 0 0-2.21-2.21zM69.71 21.562a1.563 1.563 0 0 0 .016 2.225l6.696 6.51a1.56 1.56 0 0 1-.004 2.199L32.31 76.416c-.61.61-1.601.61-2.21 0l-6.93-6.93a1.56 1.56 0 0 0-1.768-.31c-3.005 1.41-6.613.768-8.979-1.599-2.366-2.365-3.01-5.973-1.6-8.978a1.563 1.563 0 0 0-.309-1.768L3.584 49.9c-.61-.61-.61-1.6.002-2.213L47.502 3.583a1.561 1.561 0 0 1 2.202-.006l6.507 6.697c.584.6 1.583.659 2.226.016 2.675-2.676 6.863-2.961 9.948-.886l-2.291 2.292a4.696 4.696 0 0 0-5.335.915 4.694 4.694 0 0 0 0 6.63 4.69 4.69 0 1 0 7.547-5.337l2.29-2.291c2.06 3.049 1.823 7.24-.886 9.95zm-4.531-6.741a1.562 1.562 0 1 1-2.209 2.21 1.562 1.562 0 0 1 2.209-2.21z" fill="#76CEFF"/></svg>