<svg width="11" height="11" fill="none" xmlns="http://www.w3.org/2000/svg"><path d="M10.758 9.773c-.163.382-.602.634-.954.829-.461.251-.928.398-1.452.398-.728 0-1.384-.298-2.046-.54a7.289 7.289 0 0 1-1.369-.647C3.61 8.994 2.007 7.39 1.19 6.063a7.383 7.383 0 0 1-.65-1.367C.298 4.032 0 3.375 0 2.65c0-.524.148-.993.4-1.454.194-.351.444-.79.827-.953C1.485.125 2.032 0 2.313 0c.054 0 .109 0 .164.024.164.055.336.437.414.593.25.446.493.9.75 1.336.125.203.36.453.36.696 0 .476-1.414 1.172-1.414 1.593 0 .211.196.485.306.672.789 1.42 1.773 2.407 3.195 3.194.188.11.46.306.672.306C7.181 8.414 7.878 7 8.352 7c.244 0 .493.234.697.359.437.258.892.5 1.335.749.157.08.54.251.593.415.023.055.023.11.023.165 0 .28-.125.826-.242 1.085z" fill="#00A3FF"/></svg>